<svg width="1574" height="472" viewBox="0 0 1574 472" fill="none" xmlns="http://www.w3.org/2000/svg">
    <path d="M124.37 271L124.25 410.18L62.42 410.28V62.66L150.69 62.74C203.46 62.78 214.65 88.95 214.61 131.45L214.55 201.04C214.51 243.54 197.21 271.08 153.78 271.04L124.36 271.01L124.37 271ZM124.42 214.49H136.1C150.11 214.51 151.99 205.64 152 194.9L152.05 136.99C152.05 124.85 150.2 116.44 136.19 116.43H124.51L124.43 214.49H124.42Z" fill="black"/>
    <path d="M365.89 62.9L365.84 124.08L295.23 124.02L295.17 199.68L348.41 199.72L348.36 262.3L295.12 262.26L295.05 347.73L366.04 347.79L365.99 410.37L232.89 410.26L233.18 62.79L365.91 62.9H365.89Z" fill="black"/>
    <path d="M517.27 63.02L517.22 124.2L446.49 124.14L446.43 199.8L499.67 199.85L499.62 262.43L446.38 262.38L446.31 347.85L517.3 347.91L517.25 410.49L384.15 410.38L384.44 62.91L517.29 63.02H517.27Z" fill="black"/>
    <path d="M597.49 410.56L535.37 410.51L535.66 63.04L633.74 63.12C671.57 63.15 690.7 84.18 690.67 121.08L690.62 176.66C690.6 204.68 674.71 218.68 663.03 223.34C673.3 227.08 689.64 238.31 689.62 264.46L689.52 382.62C689.51 397.56 692.3 404.1 694.64 408.31V410.65L632.52 410.6C629.72 406.86 626.93 399.39 626.94 383.97L627.02 282.63C627.03 266.75 623.3 262.08 610.69 262.07H597.61L597.49 410.57V410.56ZM597.66 199.59H609.8C621.94 199.61 627.08 194.94 627.1 178.6L627.14 136.44C627.15 121.5 624.35 116.82 611.74 116.81H597.73L597.66 199.59Z" fill="black"/>
    <path d="M794.41 59.05C842.98 59.09 861.18 81.52 861.14 127.29L861.1 173.99L801.32 173.94L801.36 130.5C801.36 119.29 799.04 112.28 787.83 112.27C777.09 112.27 774.28 119.26 774.27 130.94V138.88C774.25 155.22 777.98 166.44 793.38 183.73L828.84 223.46C860.1 258.51 866.62 283.27 866.6 312.69V329.03C866.54 380.87 842.23 414.94 790.86 414.9H778.72C731.55 414.85 707.75 389.61 707.79 342.91L707.84 280.33L769.02 280.38L768.97 335.96C768.96 349.97 773.63 356.98 784.83 356.99C795.57 356.99 800.25 348.6 800.26 331.78V325.24C800.28 300.95 798.43 291.14 780.23 271.05L744.3 231.32C718.64 203.28 711.19 175.72 711.22 143.03V128.09C711.27 83.72 738.38 58.99 781.81 59.03H794.42L794.41 59.05Z" fill="black"/>
    <path d="M946.89 271L946.77 410.18L884.65 410.13L884.94 62.66L973.21 62.73C1025.99 62.77 1037.17 88.94 1037.14 131.44L1037.08 201.03C1037.04 243.53 1019.74 271.07 976.31 271.03L946.89 271.01V271ZM946.94 214.49H958.61C972.62 214.51 974.5 205.64 974.51 194.9L974.56 136.99C974.56 124.85 972.71 116.44 958.7 116.43H947.03L946.95 214.5L946.94 214.49Z" fill="black"/>
    <path d="M1127.81 351.95L1090.45 351.92L1084.79 410.3L1029.68 410.25L1073.87 62.82L1147.66 62.88L1194.54 410.39L1134.29 410.34L1127.8 351.95H1127.81ZM1096.57 292.15L1121.79 292.17L1108.81 160.34L1096.57 292.15Z" fill="black"/>
    <path d="M1298.49 262.94L1360.14 262.99L1360.07 336.45C1360.04 378.02 1343.19 416.77 1288.08 416.72H1275.47C1215.69 416.66 1202.18 377.89 1202.21 334.45L1202.37 138.3C1202.4 96.27 1220.65 59.39 1275.76 59.43H1288.37C1347.68 59.49 1360.26 96.39 1360.23 136.09L1360.18 199.78L1298.53 199.73L1298.58 138.38C1298.58 125.3 1294.39 118.29 1282.72 118.28C1271.05 118.28 1267.3 124.8 1267.29 138.35L1267.13 334.5C1267.12 348.05 1271.79 355.52 1282.99 355.53C1294.2 355.53 1298.41 347.14 1298.42 334.53L1298.48 262.94H1298.49Z" fill="black"/>
    <path d="M1511.44 63.02L1511.39 124.2L1440.66 124.14L1440.6 199.8L1493.84 199.85L1493.79 262.43L1440.55 262.38L1440.48 347.85L1511.47 347.91L1511.42 410.49L1378.32 410.38L1378.61 62.91L1511.46 63.02H1511.44Z" fill="black"/>
</svg>
