<?xml version="1.0" encoding="UTF-8"?>
<svg id="b" data-name="Layer 2" xmlns="http://www.w3.org/2000/svg" width="1831.769" height="280.914" viewBox="0 0 1831.769 280.914">
  <g id="c" data-name="Layer 1">
    <path d="M237.538,235.199c1.161,1.17,1.783,2.726,1.774,4.37v28.805c-.009,1.616-.688,3.148-1.904,4.309-1.226,1.184-3.139,1.57-4.561,1.816l-217.918-.153c-3.404-.028-6.158-2.809-6.135-6.236v-32.687c0-1.161,.725-2.693,1.895-3.993L173.636,49.809H6.121C2.666,49.781-.018,47.12,0,43.758L.218,14.266c.014-1.644,.664-3.186,1.839-4.342,1.161-1.142,2.693-1.769,4.351-1.769h.051l217.937,.274c3.399,.028,6.139,2.814,6.111,6.25v31.089c0,2.294-.483,3.817-1.634,5.099L66.214,233.369H233.201c1.644,.009,3.186,.659,4.337,1.83ZM535.898,44.488c25.745,26.125,39.769,60.66,39.499,97.234-.26,36.564-14.794,70.886-40.92,96.63-26.125,25.745-60.823,40.135-97.229,39.509-36.583-.265-70.899-14.8-96.644-40.925s-39.778-60.656-39.508-97.229c.269-36.578,14.804-70.9,40.929-96.644,25.875-25.503,60.006-39.508,96.198-39.508,.344,0,.697,0,1.041,.005,36.574,.265,70.881,14.804,96.635,40.929Zm-4.356,96.909c.372-51.443-41.17-93.598-92.604-93.969-51.331-.279-93.598,41.161-93.979,92.599-.372,51.433,41.17,93.594,92.613,93.974,.232,0,.455,.005,.688,.005,51.108-.005,92.892-41.403,93.282-92.609Zm626.196,128.621c.622,1.416,.028,2.568-.26,3-.279,.423-1.096,1.407-2.61,1.407h-39.759c-1.245-.009-2.369-.752-2.852-1.857l-24.983-58.571h-135.53l-26.283,58.575c-.511,1.128-1.625,1.853-2.888,1.853h-40.251c-1.542-.009-2.35-1.017-2.628-1.453-.279-.432-.854-1.588-.223-2.981L997.884,10.44c.613-1.305,1.56-2.15,2.433-2.15h41.505c1.124,0,2.071,1.904,2.312,2.452l113.603,259.275Zm-88.769-97.666l-48.35-110.199-49.966,110.199h98.316Zm-262.376,60.283h-.009l-113.301,.01V10.742c.009-.697-.242-1.305-.697-1.769-.455-.465-1.068-.72-1.718-.725l-19.452,.032-19.453-.032c-.65,.005-1.263,.26-1.718,.725-.455,.464-.706,1.073-.697,1.769V271.856c-.009,.915,.427,1.49,.697,1.76,.455,.464,1.068,.724,1.727,.729l152.132,.115h2.488c.696,.009,1.305-.241,1.769-.697s.72-1.068,.725-1.718v-.221h0v-36.714h0v-.062c-.005-.65-.26-1.263-.725-1.718-.464-.455-1.073-.706-1.769-.697Zm1015.357-81.871c-25.969,55.298-100.677,98.447-142.904,119.242-9.154,4.529-16.759,7.941-19.438,9.046-.032,.016-3.32,1.61-7.473,1.85l-.772,.012-.192-.012c-4.153-.24-7.44-1.834-7.508-1.866-2.647-1.089-10.251-4.505-19.398-9.03-28.084-13.83-70.533-37.549-103.458-68.152-32.925,30.603-75.371,54.322-103.455,68.152-9.154,4.529-16.759,7.941-19.438,9.046-.032,.016-3.32,1.61-7.473,1.85l-.773,.012-.192-.012c-4.153-.24-7.44-1.834-7.509-1.866-2.647-1.089-10.251-4.505-19.397-9.03-42.228-20.795-116.939-63.94-142.905-119.242-11.773-25.05-13.002-53.316-3.464-79.589,9.859-27.071,29.87-48.729,56.339-60.987,36.285-16.805,78.512-12.596,110.188,10.978,2.302,1.72,4.621,3.606,6.892,5.61l.34,.3,.34-.3c2.234-1.978,4.553-3.866,6.884-5.61,31.68-23.574,73.899-27.781,110.196-10.978,4.687,2.17,9.166,4.641,13.427,7.379,4.261-2.738,8.741-5.208,13.428-7.379,36.285-16.805,78.512-12.596,110.188,10.978,2.303,1.72,4.621,3.606,6.892,5.61l.34,.3,.341-.3c2.234-1.978,4.553-3.866,6.883-5.61,31.68-23.574,73.899-27.781,110.196-10.978,26.466,12.256,46.473,33.914,56.335,60.985,9.539,26.27,8.313,54.535-3.46,79.591Zm-301.143-8.4c1.61-2.668,3.069-5.361,4.345-8.077,7.348-15.678,8.093-33.382,2.094-49.856-1.687-4.636-3.858-9.016-6.44-13.11-2.582,4.094-4.754,8.474-6.441,13.11-5.999,16.477-5.254,34.18,2.098,49.856,1.276,2.716,2.734,5.409,4.344,8.077Zm-25.96,30.797c-5.296-7.211-9.867-14.686-13.488-22.397-11.773-25.05-13.002-53.316-3.464-79.589,3.362-9.23,7.906-17.83,13.481-25.643-.096-.045-.188-.095-.283-.14-9.463-4.381-19.486-6.604-29.793-6.604-14.941,0-29.093,4.665-40.93,13.489-6.419,4.777-13.595,11.327-22.597,26.778-2.451,4.525-6.203,11.407-6.532,11.881-.272,.405-.781,1.157-1.281,1.157-.497,0-1.001-.743-1.333-1.227-.276-.405-4.024-7.284-6.487-11.825-9.002-15.448-16.178-21.993-22.593-26.764-11.837-8.824-25.989-13.489-40.926-13.489-10.308,0-20.331,2.221-29.797,6.604-17.015,7.875-29.857,21.74-36.153,39.04-5.999,16.477-5.254,34.18,2.099,49.856,21.716,46.238,94.614,85.987,124.944,100.931,3.58,1.766,6.956,3.384,10.031,4.806l.216,.1,.216-.1c3.091-1.434,6.467-3.048,10.027-4.806,21.354-10.521,63.805-33.338,94.644-62.057Zm294.094-88.73c-6.295-17.299-19.138-31.165-36.153-39.04-9.462-4.381-19.486-6.604-29.793-6.604-14.941,0-29.093,4.665-40.93,13.489-6.419,4.777-13.595,11.327-22.597,26.778-2.451,4.525-6.203,11.407-6.531,11.881-.272,.405-.781,1.157-1.282,1.157-.497,0-1.001-.743-1.333-1.227-.276-.405-4.024-7.284-6.487-11.825-9.002-15.448-16.178-21.993-22.593-26.764-11.837-8.824-25.989-13.489-40.926-13.489-10.308,0-20.331,2.221-29.798,6.604-.096,.044-.188,.095-.284,.14,5.575,7.813,10.119,16.412,13.482,25.641,9.539,26.27,8.313,54.535-3.46,79.591-3.622,7.712-8.193,15.186-13.49,22.398,30.837,28.719,73.289,51.536,94.642,62.057,3.58,1.766,6.956,3.384,10.032,4.806l.216,.1,.216-.1c3.091-1.434,6.467-3.048,10.027-4.806,30.33-14.945,103.228-54.693,124.948-100.931,7.349-15.678,8.093-33.382,2.095-49.856Z" fill="#183b54"/>
  </g>
</svg>